<?xml version="1.0" encoding="UTF-8" standalone="no"?>
<svg
   width="210mm"
   height="297mm"
   version="1.1"
   viewBox="0 0 744.09448819 1052.3622047"
   id="svg52"
   sodipodi:docname="sandslash.svg"
   inkscape:version="1.3 (0e150ed6c4, 2023-07-21)"
   xmlns:inkscape="http://www.inkscape.org/namespaces/inkscape"
   xmlns:sodipodi="http://sodipodi.sourceforge.net/DTD/sodipodi-0.dtd"
   xmlns="http://www.w3.org/2000/svg"
   xmlns:svg="http://www.w3.org/2000/svg">
  <defs
     id="defs52" />
  <sodipodi:namedview
     id="namedview52"
     pagecolor="#ffffff"
     bordercolor="#cccccc"
     borderopacity="1"
     inkscape:showpageshadow="0"
     inkscape:pageopacity="1"
     inkscape:pagecheckerboard="0"
     inkscape:deskcolor="#d1d1d1"
     inkscape:document-units="mm"
     inkscape:zoom="0.72426347"
     inkscape:cx="396.26464"
     inkscape:cy="572.30555"
     inkscape:window-width="1920"
     inkscape:window-height="1009"
     inkscape:window-x="-8"
     inkscape:window-y="-8"
     inkscape:window-maximized="1"
     inkscape:current-layer="svg52" />
  <rect
     style="fill:#75a7fd;fill-rule:evenodd;stroke:#ffffff;stroke-width:0;paint-order:markers fill stroke"
     id="rect88"
     width="743.92249"
     height="1050.1705"
     x="-1.2237315"
     y="1.8938434" />
  <path
     d="m461.29 188.92c-26.012 12.725-63.258 31.554-89.069 44.681-15.843 8.5488-31.731 19.203-40.465 35.467-4.767 8.2758-6.9893 17.866-6.4733 27.397 0.97666 3.0481-2.4036 1.5697-3.5678 0.30406-2.0802-2.0034-2.8644-5.117-2.0974-7.8877-6.4981 3.8211-14.339 2.4294-21.51 3.1659-4.9696 0.24241-11.465 0.71175-13.748 5.9629-12.12 25.277-23.874 50.749-35.831 76.089-1.0036 0.30474-0.7624-1.8924-1.0414-2.5165-1.8323-9.9092 3.6494-19.12 8.1998-27.469 6.0447-10.871 14.147-21.663 14.321-34.632 0.65504-10.204-2.327-20.113-5.805-29.576-6.8462-19.768-13.555-39.655-20.736-59.263-4.0748 6.3821-6.8447 13.575-9.9128 20.5-10.892 25.97-18.377 54.459-14.433 82.776 2.5846 19.648 10.698 38.914 24.662 53.171-0.95333 0.3304-2.3825-1.0833-3.3688-1.5009-15.022-9.3398-25.62-25.716-27.713-43.301-0.78753-7.108-0.0619-14.354-1.3021-21.402-1.9486-7.1628-9.4276-10.198-15.547-13.016-5.504-2.4117-11.464-5.9202-13.584-11.87-1.0514-4.959 1.1019-9.9407 0.44867-14.953-0.83584-15.573-9.3038-29.884-20.664-40.216-9.0108-8.6-19.504-15.485-30.049-22.037-2.7928-2.0682-7.5703-3.031-9.7287 0.43053-2.4592 4.3207-1.9904 9.5879-2.6226 14.374-0.65762 13.485-1.6484 27.444 2.8721 40.426 2.5299 8.5594 8.1656 15.661 14.368 21.885 7.7192 8.3123 16.673 15.796 21.974 26.024 7.5045 13.096 12.893 27.381 21.414 39.888 4.2775 6.2159 10.313 10.809 16.049 15.57 12.773 11.385 18.348 28.428 21.016 44.847 2.4813 14.246 2.5283 28.75 4.0638 43.094 0.54529 5.993 3.7968 13.125 10.433 14.054 4.2212 0.68015 9.6556-1.5368 9.8639-6.3652 5.9034-28.561 11.212-57.796 24.597-84.012 12.059-23.767 31.708-44.634 56.914-54.317 8.0398-3.0412 16.658-4.6631 25.221-4.8989 0.85159 2.5021 0.1763 5.6784 1.7636 7.8296 9.1109 6.4173 17.179 14.357 23.658 23.429 1.0816-13.827 0.56834-27.874-2.5404-41.425-8.1285 3.9762-17.153 6.2924-26.181 6.3751 6.3839-4.1361 13.238-7.6274 19.517-11.979 26.438-17.594 49.583-40.132 68.066-65.943 6.4689-9.0845 12.208-18.664 17.531-28.458-0.10707-4.8487 11.504-16.033 11.036-20.702zm-219.12 201.22c3.202 0.80347 2.124 4.7032 2.045 7.0923-1.058 12.3-2.443 24.68-5.738 36.604-0.68256 1.8259-1.7802 4.2067-3.6355 4.8972-2.4173-3.3426-0.58987-7.7556-0.50753-11.524 1.457-11.433 2.5848-22.947 4.6569-34.278 0.52713-1.3038 1.5601-2.9368 3.179-2.7913z"
     fill="#e3cb46"
     stroke="#e3cb46"
     stroke-width="2.1846px"
     id="path1" />
  <path
     d="m345.54 326.27c19.643 11.341 31.029 31.029 31.029 31.029"
     fill="none"
     stroke="#fea"
     stroke-width="2.1846px"
     id="path2" />
  <path
     d="m559.25 326.15c-12.401 7.9564-25.764 13.527-38.026 21.715-12.444 8.472-26.579 22.563-38.666 31.56 10.826 1.4271 25.111-0.41965 35.954 0.8466 6.2186-7.481 11.796-15.547 17.73-23.283 7.6117-10.324 15.517-20.429 23.025-30.826l-6.1e-4 -0.0132-0.0153 1e-3z"
     fill="#280b0b"
     id="path3" />
  <path
     d="m467.16 204.76c-2.5551 0.48779-12.129 3.8621-14.379 4.8159-20.556 37.122-39.942 60.127-72.058 87.8-1.0429 1.5441-8.9391 11.108-7.551 13.305 3.1901 9.2668 7.7741 21.174 8.7674 30.827 10.091-11.578 21.504-20.983 34.761-28.747 13.351-8.053 31.853-15.738 47.02-19.051 8.513-2.1342 12.206-12.044 16.292-19.3 12.884-22.758 25.786-45.514 38.304-68.475-14.734-0.73355-29.492-1.5381-44.226-1.9584zm-31.834 50.653c0.89758 1.306-1.2968 2.7622-1.8385 3.9119-3.9353 7.0512-9.3987 13.268-15.788 18.155-0.40511-0.56725 1.2021-2.0127 1.4872-2.7645 3.9388-6.2251 9.3814-11.242 14.01-16.894 0.35406-0.93414 1.1586-2.093 2.1293-2.4083z"
     fill="#280b0b"
     id="path4" />
  <path
     d="m365.76 452.32 0.37974 4.6636c1.8317 8.2144 3.2611 15.868 10.07 21.44 4.2233 3.4896 9.809 7.1487 14.976 5.3334 3.9166-2.224 8.332-7.7336 12.126-10.099 1.6066-0.67589 2.7421-0.19596 3.8998 0.59733-0.0472 0.9592-0.76753 1.8667-3.4561 2.4534-25.382 9.3025-18.253 40.946-20.271 62.755 1.4842 25.928-29.831 37.896-31.991 63.103-0.29787 6.5299-2.0532 23.25 8.1043 27.398 6.0721-11.533 6.9535-31.382 23.962-30.943 21.293-4.5264 24.347 21.336 29.24 37.322 14.047-5.1317 39.807-8.6418 41.569 10.22-2.3603 14.204-15.746 18.562-22.267 30.901-23.879 28.377-41.368 61.941-54.997 96.038 7.8746 22.465 63.448 56.365 102.21 61.436 29.35-2.7838 52.316-29.271 64.098-53.166 12.376-27.351 12.051-64.156 8.4979-93.151-9.9081-36.472-38.048-78.422-68.716-98.443-1.3227 16.323 8.372 45.043-5.995 61.423-3.7981 3.1113-14.648 7.7311-7.6347 3.3818 22.233-12.216 13.896-43.465 11.924-64.514-0.56653-6.9042 0.38914-8.2136-0.19661-15.426 0.77456-1.286-0.78253-10.527-1.1599-11.143-1.1857-16.647-2.1538-29.977-7.6887-45.821-5.647-15.884-16.41-31.086-30.435-40.662-8.1744-5.5183-18.495-10.966-28.442-10.91-8.7532-0.13086-17.17-0.20032-25.485-3.1275-7.5877-2.5776-16-6.1158-22.319-11.059z"
     fill="#e3cb46"
     id="path5" />
  <path
     d="m379.18 775.05c-12.456 7.3099-26.312 19.935-39.526 21.783 10.903 7.4164 25.245 11.989 37.799 16.196 11.273 3.0135 59.38 13.51 70.927 13.444-8.3656-5.4523-43.231-19.395-49.746-27.518-6.5828-6.8094-14.662-14.132-19.453-23.904z"
     fill="#d6bb62"
     id="path6" />
  <path
     d="m195.6 593.12c-20.811 7.9701-35.852 33.298-46.338 51.927-2.1372 46.796 23.984 92.267 38.78 135.09 5.3883 8.8505 12.014 24.891-2.2801 25.691-20.249-1.4684-26.331-18.572-39.541-31.532-10.826-12.258-25.114-34.93-33.334-48.352-4.3416 8.0855-8.0737 17.583-7.1981 27.259 1.5175 16.771 11.785 34.082 20.087 45.518 11.099 18.587 35.532 33.41 57.558 30.219 19.727-0.6291 42.717-1.658 62.461-3.9504 10.085-11.108 22.024-30.294 36.346-33.46-32.627-17.536-65.625-45.497-76.355-82.04-15.067-35.708-9.044-79.878-10.186-116.37z"
     fill="#e3cb46"
     id="path7" />
  <path
     d="m207.96 493.63c-5.1003 0.0153-9.4097 3.8147-12.396 7.6322-5.1954 7.9642-5.5845 17.825-7.9968 26.79-3.5098 15.583-10.595 30.19-19.421 43.433 9.1429 1.6431 18.317 3.6976 27.635 3.8492 3.6214 0.35115 3.9054-4.0487 4.7607-6.5304 6.3963-24.126 11.118-48.779 12.939-73.693 0.55395-2.1436-2.3365-1.1855-3.484-1.4802-0.67923-8e-3 -1.3585-5e-3 -2.0378-1e-3z"
     fill="#deaa87"
     id="path8" />
  <path
     d="m121.88 494.88c-9.203 3.2937-18.369 6.7747-27.377 10.553-3.4213 1.3334-1.7215 5.379-0.63967 7.758 1.6827 3.6329 3.0822 7.8287 5.3352 10.959 7.6557-9.7107 15.507-19.312 22.807-29.281l-0.038-5e-3 -0.0872 0.0153z"
     fill="#deaa87"
     id="path9" />
  <path
     d="m213.47 457.22c-28.551 7.9982-62.748 17.557-85.952 36.938-28.608 28.463-49.475 65.903-61.75 104.17-4.799 15.516-5.1334 47.916 16.031 50.516 3.2422-0.0514 13.175 0.42824 14.736-2.3068 2.6271-4.6014-6.0022-12.2-1.2445-14.259 11.387-9.1386 24.38-2.4619 36.896 1.028 3.5886 3.6564 11.365 7.345 16.722 6.3447 6.1532-1.1489 11.871-9.8501 11.914-16.122 0.858-17.64-15.168-35.198 0.86799-50.302 13.08-16.462 23.238-37.851 25.673-59.058 2.0645-13.373 11.344-21.917 25.557-23.438 5.6453-3.4914 10.525-30.785 0.54824-33.506z"
     fill="#e3cb46"
     id="path10" />
  <path
     d="m192.59 579.63c-10.729 3.6408-24.757 7.185-33.254 14.853-2.1836 6.1952 3.1202 13.863 3.3241 20.198 9.585-10.911 23.281-17.87 32.984-28.392 1.0512-1.6343-0.83371-6.5574-3.0538-6.6585z"
     fill="#784421"
     stroke="#000"
     stroke-width="2.1846px"
     id="path11" />
  <path
     d="m528.27 641.35 42.876 12.551 26.843 1.8137 23.215 1.0882-10.157 8.343-12.333 2.5392 0.72548 4.3528 10.519 9.0685 15.235 12.696 11.608 7.6175 13.059 12.333 1.8137 2.9019-1.0882 1.8137-26.843 12.333-23.215 5.4411-33.009 1.8137-11.608 2.5392-0.72548-43.529-7.2548-24.666z"
     fill="#501616"
     fill-rule="evenodd"
     stroke="#000"
     stroke-width="2.1846px"
     id="path12" />
  <path
     d="m550.06 767.77c-3.8252 2.959-5.4878 17.716-6.6843 22.034 5.4614-0.9808 20.311-8.2067 22.84-14.179-2.2544-2.9282-12.504-7.1147-16.156-7.8544z"
     fill="#d6bb62"
     stroke="#d6bb62"
     stroke-width="2.1846px"
     id="path13" />
  <path
     d="m458.57 488.87 18.468 3.5909 34.883-3.0779 14.364-4.6169 25.65-1.026 30.779-2.5649 27.188 1.539 49.76 9.2338 41.552 14.364 9.2338 6.1559-32.318 18.981-69.767 26.676-36.422 11.286 12.825 3.5909 32.831 7.6948 51.299 18.981 19.494 10.773 29.753 16.929 3.5909 5.6429-4.1039 5.1299-28.214 10.26-48.734 7.1819-35.909-1.026-42.065-2.565-20.007-3.0779-27.188-28.214-6.1559-9.2338-25.137-23.598-2.052-42.578-7.6948-28.727z"
     fill="#784421"
     fill-rule="evenodd"
     stroke="#000"
     stroke-width="2.1846px"
     id="path14" />
  <path
     d="m384.7 342.67 28.214-28.214 29.753-15.39 46.682-9.7468 52.838-3.0779 36.422 2.5649 10.26-0.51298 4.1039 5.1299-14.364 17.442-44.63 29.753-52.325 37.961-51.812-2.565-36.935 8.7208-26.163 13.338 3.078-13.851z"
     fill="#501616"
     fill-rule="evenodd"
     stroke="#000"
     stroke-width="2.1846px"
     id="path15" />
  <path
     d="m446.68 842.07c-2.4062 3.553-3.474 8.5465-5.3621 13.047-1.5439 3.6802-4.4861 9.2515-3.3354 12.9 0.89299 2.8311 0 0 2.6434 7.1055 0.24188 0.65013 2.9233 4.1693 4.1966 4.1222 0.87997-0.0325 1.625 0.43331 2.5166-2.7543 3.9335-12.702 14.261-30.534 30.073-20.555 10.867 3.3733 19.513-8.4113 30.113-0.18439 7.5324 2.1066 5.1362 17.028 10.487 18.913 1.6292-4.0837 5.2064-10.715 4.502-17.296-1.3823-12.914-10.296-26.565-20.056-26.893-14.375 7.7386-32.986 5.0801-47.342-0.56254z"
     fill="#e3cb46"
     id="path16" />
  <path
     d="m254.3 822.24c-21.964 11.084-47.632 7.5812-71.404 9.7042-6.3531 0.59818-18.477-5.0275-27.282-4.8976-6.4312 0.0948-9.8971 5.6492-13.972 7.0979 4.1914 3.4377 10.909 6.8076 17.343 6.114 7.6835-0.82837 14.963-5.5814 17.054 2.6649 2.2058 5.6219-0.98863 17.038 2.0253 23.12 2.1513 4.3411 8.9011 4.7089 16.49 4.0399 22.947-2.274 49.471 0.29385 70.613-5.4645 3.2182-10.623 1.3454-30.73-4.1483-40.295-0.91924-0.83711-5.4994-2.2701-6.7186-2.0831z"
     fill="#e3cb46"
     id="path17" />
  <path
     d="m203.47 387.34c-2.6266 3.2063-2.8463 4.99-2.8551 6.9188 1.4001 2.9262 5.3954 5.6699 8.2183 7.0625 0.98332-0.42458 2.6785-7.0244 2.5648-7.8385-1.349-2.9135-1.2128-1.1609-3.3615-3.5516-0.17345-0.0632-2.5577-4.4414-2.7377-4.4202z"
     fill="#2c2ca0"
     id="path18" />
  <path
     d="m180.18 360.45c-0.42944 2.8573-0.35381 5.8032-0.11639 8.6774 1.6743 8.2276 7.8228 15.765 16.145 17.838 1.7356 0.5505 4.0679 0.9032 4.6035 2.9751 0.24958 1.1331 0.73432 0.27971 0.96331-0.3222 0.6292-1.0342 1.3907-1.978 2.1152-2.9453-4.0661-6.0846-9.2717-11.29-14.092-16.766-3.1272-3.4486-6.2571-6.8949-9.3447-10.379-0.0916 0.30732-0.18307 0.61467-0.27445 0.922z"
     fill="#f9f9f9"
     stroke="#f9f9f9"
     stroke-width="2.1846px"
     id="path19" />
  <path
     d="m343.6 324.28c-27.811 1.918-55.338 21.98-68.736 45.386-11.557 19.507-17.958 45.295-23.462 67.094 4.4017 1.7153 13.925 2.4768 18.666 2.8206 7.819-17.958 7.4073-41.559 17.045-58.853 10.246-20.526 29.487-32.934 50.222-42.102 3.1038-2.2142 7.8598-6.1448 8.6046-10.056-0.73836-0.28123-1.5689-4.2844-2.3399-4.289z"
     fill="#fea"
     id="path20" />
  <path
     d="m347.49 346.03c0.1016 14.775-2.8612 28.917-13.892 39.727-13.991 14.632-38.25 12.527-52.75 26.517-6.4119 5.2835-8.3148 21.929-10.335 29.453 15.394 0.69711 34.721-2.1083 50.13-1.9854 21.064-11.826 38.441-30.601 46.25-53.448 3.0077-9.0876 7.0259-24.017 7.7102-33.611-6.5222-8.5339-17.418-18.721-25.775-25.48-0.15752 4.9772-1.1807 13.849-1.3382 18.827z"
     fill="#fea"
     id="path21" />
  <path
     d="m251.07 446.83c-3.2142 11.335-5.897 26.14-18.829 30.197-2.9751 1.6936-6.7174-0.21759-9.496 0.81618-6.8797 42.942-17.515 85.318-22.712 128.55-4.0119 35.71-2.9507 73.176 10.848 106.81 11.453 28.122 31.453 53.922 59.413 67.016 22.365 10.422 47.959 13.582 72.313 10.195 24.735-2.7924 44.896-26.282 44.548-51.002 0.0175-4.2647-4.3713 5.4431-3.6654 2.8331-15.404 18.322-35.213 33.561-57.754 41.858 13.431-24.054 28.504-47.452 41.699-71.478-16.366 18.319-30.583 38.574-47.832 56.089-3.6183 2.6294-3.6093 0.89644-7.971 1.3842 16.974-53.376 36.934-101.83 54.142-154.93-2.3123 2.8732-6.9528 9.0535-9.627 11.35-1.6326-2.0422-2.6783-1.0728-1.7145 1.2404 1.8761 6.5711-3.813-2.4636-4.5887-4.5873-5.7342-11.51-5.1522-25.796 2.3208-36.415 9.0363-13.316 19.449-26.218 23.707-42.074 4.5268-13.58 3.795-28.222 2.465-42.259-4.4542-21.21-16.314-39.904-22.709-60.51-0.10335-6.3714-5.212-5.7552-10.113-5.4297-5.8602 0.47726-12.243-0.9871-17.763 0.75327-26.097 14.704-51.368 30.793-76.502 47.061-3.0187 2.4957-1.286-1.2866-0.28893-2.4348 9.1268-16.403 26.925-24.49 43.038-32.344 8.9437-4.2302 16.112-7.0378 24.983-11.419-15.282-0.0287-28.833-1.5713-44.115-1.5984-6.3088 16.936-17.621 32.66-33.153 42.166-0.32212-1.4539 2.9983-3.7905 3.7205-5.4997 8.4567-11.708 16.728-23.67 23.066-36.685h-14.678z"
     fill="#fea"
     id="path22" />
  <path
     d="m350.64 423.37c-6.6506 3.2504-17.559 9.4727-23.409 13.712 7.3685 0.92466 19.841 0.96744 27.262 0.51206-0.77713-3.5868-2.642-10.84-3.8534-14.224z"
     fill="#fea"
     id="path23" />
  <path
     d="m227.75 137.57c-8.3358 7.3596-11.651 25.236-17.347 34.763-13.546 30.278-25.128 63.539-21.884 97.155 1.4482 13.783 10.63 26.09 23.757 30.818 3.856-29.072 10.61-59.059 26.72-83.901 5.834-6.3798 11.621 3.1789 12.794 8.4401 10.013 23.057 14.312 54.042 21.443 77.87 7.8766-5.609 21.73-17.694 32.61-16.274 8.1132 2.0575 15.853-3.0572 17.798-12.51 3.3071-15.727 14.677-27.28 27.227-36.398 20.186-15.493 25.104-42.867 20.809-66.698-1.6507-7.5091-1.5699-17.031-6.3599-22.951-31.762 21.71-53.417 54.7-75.898 85.276-2.1521 2.5515-6.0752 12.134-8.1142 4.2229-16.13-32.21-28.557-66.15-50.176-95.023-0.33908-0.1916-2.9859-4.8217-3.3785-4.7897z"
     fill="#7b3f17"
     stroke="#000"
     stroke-width="3.7138"
     id="path24" />
  <path
     d="m173.15 387.39-61.333-3.2663-54.8 10.525-27.582 9.4358 10.162 9.7987 52.986 29.033 38.832 19.597 30.485 13.428 29.759-13.428 19.234-5.4437 6.5325-0.72582 0.72582-6.1696-7.6212-4.7179-14.88-15.242z"
     fill="#d38d5f"
     fill-rule="evenodd"
     stroke="#000"
     stroke-width="2.1846px"
     id="path25" />
  <path
     d="m312.52 359.01c-2.1136-0.0105-5.979 2.9254-7.4884 4.122-8.412 7.686-13.299 18.201-17.44 28.8 1.5101 0.0809 3.3344 1.5326 4.5561 2.4182 2.0627 1.3272 5.3754 1.102 7.4335 0.29955 7.352-3.1893 14.587-9.1992 19.963-15.073 1.2446-1.3353 0.75477-7.1078 0.88347-8.9464-1.8577 2.7591-5.3072 7.6796-7.6957 10.036-4.5754 4.7128-8.3434 8.2653-14.588 10.369-1.7612 0.50237-1.7852 1.0594-2.8344-0.73257-0.82999-1.2388-1.1617-1.362 0.42987-1.8698 2.0724-0.61967 3.7333-1.0894 5.7713-1.8582 5.6369-1.9389 11.134-5.718 14.43-10.822 0.87733-2.1468 1.4513-5.8231 1.6303-8.1263 0.10311-2.5873 0.0404-5.9931-2.2728-7.6304-0.35229-0.23597-2.3571-0.99863-2.7787-0.98502z"
     fill="#2c2ca0"
     id="path26" />
  <path
     d="m541.93 382.11c-14.31-0.31527-2.4072 8.3585 10.284 11.102 6.7491 3.0402 13.608 1.2799 18.144 7.5306-0.35973 4.2869-1.2024 10.372 5.3941 9.6407 8.7474 0.83377 24.694 2.9021 36.125 3.1169 10.397 0.1953 16.74-7.9655 23.327-13.126 14.33-6.1094-19.51-6.4395-25.321-7.603-16.152 0.64546-19.468 2.5396-34.074-4.4743-4.8846-1.79-28.683-6.4885-33.88-6.1872z"
     fill="#502d16"
     id="path27" />
  <g
     transform="matrix(1.4979 0 0 1.4979 -603.59 73.087)"
     id="g38">
    <path
       d="m463.3 293.1c-2.1-3.2 2.1-6.8 5.5-8.4 25.3-11.8 51.3-22.1 77.9-31.1-13.1-8.4-22.5-22.5-25-37.9-0.7-3.7-5.2-5.1-9-5.5-29.9-3.4-60.6 0.7-88.5 12 27.5 14.8 54.9 29.5 82.3 44.3-29.7-8.4-57.8-22.5-82.3-41.3-1.7-1.3-3.6-3.3-2.7-5.3 0.5-1.2 1.8-1.8 3-2.2 24.1-9.3 50.2-13.7 76-12.7-9.4-13.9-18.8-27.7-28.2-41.5-3.2-4.7 0.7-11.6 6.2-13.4 5.4-1.9 11.2-0.3 16.7 1.2-16.1-18.1-21.4-45-13.3-67.8 17.6 4.8 33.2 16.9 42.4 32.8 3-25.9 12.1-51.2 26.3-73.1 0.9-1.4 2-2.9 3.7-3.2 2.3-0.4 4.1 1.8 5.4 3.8 12.6 19.2 23.5 39.5 32.7 60.6 13.6-20.1 29.2-38.7 46.7-55.5 2.6-2.6 6.4-5.4 9.8-3.8 2.3 1 3.4 3.5 4.1 5.9 5.9 17.1 5.7 36.2-0.4 53.3 19.8-13.4 41.6-23.9 64.6-31.1-14.5 32.2-36.3 61-63.4 83.6 2.5 6.5 4.2 13.2 5 20.1 13-15.6 31.4-26.4 51.3-30.2 6.3-1.2 10.2-7.4 13.4-13l24.3-43.5c-8.1234-1.4691-29.088-1.5846-40.946 0.58056 10.05-6.2806 32.146-7.1806 45.746-4.6806-8.3 20.5-19.2 39.9-32.3 57.7 26.2-3.5 52.7-4.2 79.1-2.2 3.2 5.1-1.3 11.4-5.6 15.6-14.8 14.9-35.686 38.78-50.486 53.68 8.4-10.4 22.886-29.78 31.286-40.18-14.2 9.3-28.5 18.5-42.7 27.8 21.6-17.1 43.2-34.2 64.7-51.3-29.1-4.7-59.1-3.5-87.7 3.6-9 2.3-18 5.1-26 9.7-19.2 11.1-31.7 32.8-31.7 54.9 16.9-15.1 41.9-15.4 64.5-14 40.2 2.3 80.1 7.1 119.7 14.2-5.1 5.2-11.4 9.1-18.2 11.4 5 0.4 9.9 2.4 13.7 5.7-33.4 27-72.9 51.6-115.8 49.3 8.9 15.5 12.9 34 11.2 52-1.5 16.8 23.4 23.1 30.1 38.6 4.3 10.1 17.4 12.3 28.4 13.1 33.5 2.4 69.1 4.2 98.6-11.8-16.3-10.7-32.8-21.3-51-28.3-31.6-12.2-66.6-12.3-100.1-7.5 49.8-6 98.4-21.3 142.7-44.9-33.3-15-70.4-21.4-106.9-18.6 38-9.1 78.5 0.1 113.1 18.1-27 17.8-57.2 30.9-88.7 38.4 16.9 5.2 33.7 10.8 50.4 16.7 17 6 34.8 13.1 45.7 27.6-35.8 20.7-80.1 16.7-121.2 12.2 6.6 17.8 9.3 37 7.9 55.9 21.2 0.4 42.6-4.2 61.8-13.2-3.9-4.3-7.7-8.6-11.6-12.9 5.6 3 10.4 7.5 13.7 12.9-11.7 8.5-26 13.4-40.5 13.7-7.6 0.1-16.1-0.7-22 4.1-6 4.7-4 17.5 3.5 16.6 3.9-0.4 2.4 6.2-0.7 8.7-12 10-24.1 19.9-36.1 29.8 10.4 5.5 14.2 20.6 7.7 30.5-6.5 9.8-22 12-31.1 4.5l-6 6.6c-7.3-1.5-15.4-3.5-19.2-9.8-5.7-9.3 1.5-21 8.3-29.5-16.3-1.2-32.4-4.3-47.9-9.5-23.4-7.9-48.9-20.3-71.2-9.7-7.4 3.5-5.5 14.5-2.4 22 3.2 7.6 5.5 18.4-1.7 22.3-2.2 1.2-4.8 1.4-7.3 1.5-39.1 1.9-78.1 3.9-117.2 3 14.8-11.2 29.9-21.8 45.4-32-16.6-16.3-34.6-37.4-28.9-59.9 6.8-26.4-24.3-47.7-28.6-74.6-2.5-15.8 4.6-31.4 13-45 6.3-9.3 13-21.2 7-30.5m66.4 187.1c-10.6-30.8-29.7-59.9-29.7-92.5 0-1.9 0-4-1-5.6-0.7-1.2-1.8-2.1-3-2.8-8.4-5.4-19-7.1-28.7-4.6 9.3 20.4 18.6 40.9 29 60.8 8.7 16.7 18.6 33.3 33.4 44.7m53.1-317.7c2.1-9-1-18.4-4.2-27.2-4.4-12.6-8.8-25-13.2-37.5-8.4 16.8-15.5 34.7-16.8 53.4s3.8 38.6 17.1 51.9c-12.8-6.7-21.2-20.9-21-35.3 0-3.7 0.5-7.6-1.2-10.9-2.2-4.1-7.1-5.7-11.3-7.6-4.2-2-8.6-5.8-7.6-10.4 2.1-10-2-20.6-8.4-28.5-6.5-7.9-15.2-13.7-23.8-19.2-2.1-1.5-5.1-2.9-7.1-1.3-1.5 1-1.8 3-2 4.8-1.4 13.7-2.6 28.6 4.8 40.2 4.4 6.8 11.3 11.8 16.5 18.1 10.3 12.9 13.1 31.6 26.5 41.2 16.7 12 18 35.9 19.1 56.6 0.2 4.3 0.7 9 3.7 12.1 3.1 3 9.6 2.4 10.5-1.8 4-21.3 8.3-43.1 19.2-61.9 11-18.7 30.3-34.1 52-34.4 2.2 17 3 37.5-10.7 47.7-6.1 4.5-13.7 5.9-20.8 8.5s-14.3 7.3-15.9 14.7c-3 14.2-11.8 27.1-23.9 35.1 10.4-13.7 21.1-28.4 23.1-45.4 2.5-20.8 16.5-39.7 35.5-48.2 4.1-1.8 8.9-3.7 10.5-7.9-19-0.1-35.9 13.7-45.5 30.2s-13.6 35.5-18.6 54c-1.2 4.4-2.6 9-5.6 12.3-3 3.5-8.2 5.4-12.3 3.5-3.3 24.7-9.6 48.8-13.4 73.4s-5.1 50.1 1.7 74.1c6.8 23.9 22.5 46.3 45.2 56.4 11 4.9 23.1 6.8 35.3 6.8 6.4 0 12.9-0.4 18.9-2.6 14-5.1 23.7-20 22.8-34.8-10.4 14.2-24.9 25.5-41.4 32l32.4-54.3c-9.4 11.6-18.7 23.2-28.1 34.7-4.7 5.8-9.8 11.8-16.7 14.3 12.6-36.7 25.3-73.4 38-110.2 3-8.6 14.8-11.9 22.8-7.6 7.9 4.3 11.9 14.1 11.2 23.1 6.5-2.4 13.7-4.6 20.3-2.4s10.7 11.5 5.8 16.3c-20.4 20.1-35.9 45-44.9 72.1-4 12-15.3 21.2-27.8 22.6 19.1 9.8 40.5 15.5 61.9 16.4-16.5-1-31.8-12.6-37.3-28.2 4.6 3.5 8.3 8 12.6 11.9 10.3 9.5 23.8 14.6 36.9 19.5 7.3 2.8 15.2 5.6 22.9 3.9 5.7-1.2 10.7-4.8 14.9-8.7 21.4-19.5 30.8-50.6 26.3-79.3-4.5-28.6-22-54.5-45.4-71.5 0.1 9.2 3.7 18.3 2.6 27.4s-10.4 18.4-18.7 14.2c7.3-1.2 12.5-8.1 14.2-15.3 1.8-7.2 0.8-14.7 0.1-22-1.6-18.3-1-37.1-7.2-54.4s-21.4-33.1-39.8-32.5c-10.8 0.2-21.7-3.4-30.1-10.1 1 5.1 2.3 10.5 5.8 14.5s10.1 5.7 14 2.2c1.7-1.5 2.7-3.6 4.7-4.6 1.9-1 5.2 0.5 4.4 2.6-10.6 0.1-16.5 12.6-17 23.1s1.6 21.8-3.2 31.2c-2.6 4.9-6.8 8.7-10.1 13.2-7.3 10-9.7 23.4-6.2 35.3-5.7-6.7-7.3-16.7-3.8-24.9 2.2-5.4 6.3-9.7 9.7-14.4 12.2-17.2 14.5-41 5.7-60.2-5.6-12.3-11.2-24.8-14.2-38-23.3 12.3-46 25.9-67.7 40.8 9.4-20.1 35.9-23.8 54.3-36.3 25-17.1 33.7-51.6 27.2-81.3-5.4 2.8-11.5 4.3-17.6 4.4 34.1-18.3 61.6-48.5 76.5-84.2-16.4 8.2-32.8 16.2-49.2 24.4-10.1 5-20.3 10.1-28.4 18-8 7.9-13.7 18.9-12.1 30.1-3.1-0.3-5.1-4.4-3.3-7-6.8 5.7-20.7-1.1-24.5 7-7.9 17-15.8 33.9-23.7 50.8-3.9-13.3 11-24.9 14.1-38.7m40-37.8c3.6-7.4 11.8-11.3 17.8-17 15.4-14.5 14.9-39.8 6.5-59.3-22.7 16.7-39.1 40.5-55.2 63.7-10.1-23.9-22.7-46.7-37.4-68.1-12.7 20.1-21.4 42.5-25.7 65.8-1.5 8.2-2.4 16.9-0.1 25s8.4 15.5 16.6 17.3c1.5-19.1 7.1-37.8 16.2-54.6 0.8-1.5 1.9-3.1 3.6-3.2 1.9-0.1 3.2 1.9 4 3.7 8 17.4 14.4 35.6 18.9 54.3 2.6-8.4 12.9-13.7 21.2-10.7 3.8 1.3 7.9-1.8 9.7-5.4 1.8-3.7 2.2-7.8 3.9-11.5m-56.2 375.6c3.2-1.8 5.1-5.1 7.2-8.1 4.2-5.7 10.1-10.1 16.6-12.7-25-7.6-43.5-29.9-52-54.5-8.5-24.7-8.3-51.5-5.6-77.4-10.1 6-18.1 15.4-22.3 26.4-1 2.5-1.9 5.2-4.1 6.8-3.2 2.4-3.3 7-2.9 10.9 2.8 29.5 18.3 56 28.8 83.7 1.5 3.8 2.8 8.4 0.4 11.8-2.1 3.2-6.7 3.8-10.3 2.6s-6.5-4-9.2-6.7c-14-13.7-28.3-28-34.4-46.5-5.1 7.1-5.3 16.6-2.7 24.8s7.6 15.5 12.6 22.5c3.9 5.5 7.9 11.2 13.7 14.7 8.1 4.8 18.1 4.7 27.5 4.3 9.3-0.4 18.7-0.7 27.9-1 3 0 6.2-0.2 8.8-1.6m-72.6-221.3c-12.8 9.1-21.1 23.1-28.9 36.7-8.7 15.1-17.7 31-18.2 48.5-0.1 5.3 0.7 11 4.2 15s10.3 5.5 14.2 1.8c-3.4-1.8-2.6-7.4 0.6-9.7 3.2-2.2 7.3-2.1 11.2-1.8 6.8 0.5 14 1.5 19 5.9 3.7 3.3 10.1 0.4 11.9-4.3 1.8-4.6 0.4-9.8-1.2-14.5-1.6-4.6-3.6-9.5-2.9-14.4 1-6.5 6.5-11.2 10.7-16.4 4.8-5.9 8.2-12.9 9.9-20.3 1.2-5.6 1.5-11.5 3.5-16.7 2.1-5.4 6.6-10.4 12.3-10.7 5.5-0.3 7.9-7.1 8.8-12.5 0.3-1.8 0.6-3.9-0.5-5.4-1.8-2.4-5.5-1.8-8.4-0.7-7.1 2.5-14.2 5.1-21.4 7.7-8.7 3.2-17.3 6.5-24.8 11.8m289.1-60.3c-24.8-7.6-50.5-12.9-76.4-15.6-3.9-0.4-7.8-0.7-11.7-0.4-4.6 0.5-9 2.1-13.4 3.6-7.9 2.9-15.9 5.7-23.8 8.5-4.3 1.5-8.6 3-11.9 6.1-8.7 8.2-5.6 23.7 3.5 31.4 9.1 7.6 21.8 9.1 33.6 8.8 37.2-0.8 73.8-16.4 100.1-42.4m42.1 13.5c-12.2-3-24.7-4.7-37.2-5-4.6-0.1-9.8 0.1-13.4 3.1-22.9 19.2-51.7 31.3-81.5 34.2 7.6 6.6 16.1 13.6 26.1 13.7 39.3 0.6 75.3-21.4 106-46m-176.1 127c-6.6 27-15.5 53.5-26.5 79.1-3.5 7.9-7.1 15.9-8.4 24.5 19.2-23.6 38.6-47.2 52.9-74 4-7.5 7.7-15.6 7.2-24.1-0.1-1.8-0.4-3.7-1.5-5.1-1.2-1.8-3.4-2.6-5.4-3.5-3.2-1.3-6.7-2.7-10.1-2.6-3.6 0.1-7.4 2.2-8.2 5.7m-21.6 109.7c32.2-21.4 54.4-54.3 75.9-86.4 1.6-2.4-0.8-5.7-3.6-6.2-2.7-0.7-5.6 0.4-8.4 0.7-3.2 0.4-6.4-0.1-9.5 0.4-3.2 0.4-6.5 2-7.6 4.9-12 30.6-27.7 59.8-46.8 86.6m-110.5 40.8c2.3-0.5 4.6 1.2 5.7 3.3 1 2.1 1 4.6 1 6.9 0.1 3.3 0.1 6.6 0.1 9.8 17.7 0.4 35.4-0.4 53-2.1 0.9-0.1 1.8-0.2 2.5-0.7 1.4-1 1.5-2.9 1.5-4.7-0.2-5.5-1.2-11.1-2.7-16.4-0.5-1.5-1-3.2-2.3-4.2-1.2-1.1-3.2-1.3-4.3-0.2-3.1 3.2-7.9 3.7-12.3 4.1-15.4 1.4-31 2.7-46.2 0.2-4.8-0.8-10.9-1.2-13.1 3.1 5.5 1.9 11.4 2.2 17.1 0.9m2.2-304.1c-2.1-5.3-1.5-11.5 1.5-16.3-2.9-0.9-5.1-3.6-6.2-6.4-1.2-2.9-1.7-5.9-2.6-8.9-1.9-5.9-5.7-11-9.5-15.9-1.3-1.7-3.1-3.5-5.3-3.5-6.6 0-13.2 0.1-19.8 0.1-0.8 0-1.7 0-2.3 0.6-0.7 0.8-0.4 2.1 0.1 3.1 6.6 15.7 20.6 27.4 27.7 42.9 1 2.1 2.1 4.4 4.2 5 0.9 0.3 1.9 0.2 2.8 0.1 3.1-0.2 6.3-0.5 9.4-0.8m-64.6 180.4c4.1 2.9 6.5 7.7 8.7 12.3 2.7 5.8 5.4 11.5 8.2 17.3 7.9 16.5 15.9 33.2 27.4 47.5 6.2 7.8 13.4 14.8 21.3 20.9 1.6 1.2 3.5 2.4 5.5 1.9 1.9-0.5 2.7-3.8 0.8-4.4-5.8-1.8-9.8-6.9-13.3-11.8-18.4-25.7-33.2-53.9-44.1-83.6-4.8-0.1-9.6-0.1-14.5-0.1m61.1-54.4c5.5 1.2 11.2 2.1 16.8 2.6 0.7 0.1 1.4 0.1 2.1-0.1 1-0.5 1.3-1.6 1.6-2.6 4.5-16.1 7.5-32.5 8.8-49.2-4.3-1.9-9.6 1-12.1 5s-3.1 9-4 13.7c-2.2 10.9-6.7 21.4-13.2 30.6m117.2-152.9c-4.6 0.7-9 2-13 3.9-3.2 1.5-6.5 3.8-6.7 7.3 3.4 1.3 5.5 5.4 4.6 9-3 6.2-5.7634 10.397-12.063 12.997-1.2 0.5-3.9304 1.0879-5.6577 0.65155-1.2-0.6-2.3789-2.3485-1.0789-2.8485 3.7-1.3 7.6-2.7 10.4-5.4 2.9-2.6 4.7-6.9 3.3-10.6-0.3-0.8-1-1.7-1.8-1.7-0.5 0.1-1 0.4-1.3 0.7-8.6 7.2-14.6 17.5-16.6 28.6 4.2-2.9 9.5-3.4 14.3-4.8 7.3-2 14-6 19.3-11.5 1.7-1.8 3.3-3.9 4.2-6.2 0.7-1.9 0.8-3.9 1-5.9 0.3-4.7 0.6-9.4 1.1-14.2m93.7 342c3.9-1.7 8.2-2.7 12.3-1.6 4.1 1 7.7 4.6 7.9 8.8 0.1 2.4-0.4 5.6 1.9 6.5 3.7-6.8 2.9-15.7-1.8-21.7-2.4-3.2-6.8-5.7-10.3-3.7-6.4 3.6-14.5 4-21.2 0.9-2.8-1.2-6.4-3-8.7-1-6.5 6-10.1 15-9.5 23.8 0.1 2.1 1.4 4.8 3.5 4.3-0.3-5.8 2.3-11.7 6.8-15.5 3.7-3.2 10-4.5 13-0.7 1.4 1.9 4.1 0.9 6.1-0.1m-209.3-6.9c-1.5-0.7-3.4-0.2-5.1 0.4-10.4 3.5-20.4 8.2-29.9 13.7-2 1.1-4 2.4-5.5 4.1 14-0.7 28-1.3 42-2 0.4-2.8 0.7-5.6 1-8.4 0.3-2.9 0.3-6.6-2.5-7.8m292.5-288.2c1.7 0 3.4 0.1 4.8-0.7 4.8-2.8 9.8-5.6 14.7-8.3-5.9-0.1-11.8-0.2-17.6-0.3-5.7-0.1-11.5-0.1-17-1.8-4-1.2-7.6-3.2-11.5-4.6-6.1-2.1-12.8-2.6-19.2-1.5-0.5 0.7 0.7 1.5 1.5 1.8 6.4 1.7 12.7 3.4 19.1 5.1 1.5 0.4 2.4 2.1 2.4 3.6s-0.7 2.9-1.3 4.3c8 1.3 16 2.1 24.1 2.4m-286-21.1c0 14.6 6.1 29 16.5 39.2 1.9 1.9 3.9 3.7 5.8 5.7-0.3-8.2-1-16.3-2.2-24.4-0.3-2.1-0.8-4.6-2.8-5.4-1.6-0.7-3.5-0.1-5.3-0.6-1.5-0.4-2.5-1.8-3.5-3-2.8-3.8-5.6-7.6-8.5-11.5m211.1 318.4c-4.8 0-10.4 2.1-11.6 6.8-0.7 2.7 0.4 5.9 2.8 7.5s5.7 1.6 8-0.1c1.5-1 3.4-0.7 5.1-0.6 1.8 0.1 3.9-0.4 4.5-2 0.2-0.6 0.1-1.2 0.1-1.9-0.2-2.9-0.7-6.1-2.9-8-1.6-1.3-3.9-1.7-6-1.7m-206.9-183.9c-5.4 2.6-10.9 5.1-16.3 7.6-0.8 0.4-1.7 0.8-2.1 1.6-0.4 0.7-0.2 1.6-0.1 2.4 0.7 3.9 1.3 7.9 2 11.8 5.4-6.3 11.7-11.9 18.6-16.5 1.2-0.9 2.6-1.7 3.3-3 0.7-1.2 0.8-3.2-0.3-4.1-1.4-1.2-3.5-0.5-5.1 0.2m183.5 184.4c-2.1 1.4-4 3.2-5.3 5.4-1.5 2.4-1.9 6.3 0.7 7.5 1.2 0.5 2.1 1.7 3.1 2.5 1 0.9 2.6 1.5 3.7 0.7 3.8-2.6 5.9-7.5 5.2-12-0.4-2.5-2.1-5.2-4.6-5.1-1 0-2 0.4-2.8 1m-172.93-308.84c1.5 2 2.0312 2.6447 4.3312 3.4447-1.2-6.5-5.7-11.6-10.1-16.5-3.2-3.5-6.3-6.9-9.4-10.4-2.2 7.5 2.6 16.3 10.1 18.4 1.1 0.3 2.3 0.5 3.1 1.2 0.33678 0.94172 0.76194 1.4822 0.86322 2.1656m-34.863 300.43c-1.3-2.6-5.4-1.5-7.9 0-10.5 6.1-20.9 12.3-31.1 18.8 2.6 1.3 5.8 0.8 8.4-0.5s4.7-3.4 7.1-5.1c3.6-2.7 7.6-4.8 11.7-6.9 3.8-2.2 7.8-4.3 11.8-6.3m-34.4-224.5c-0.5 0.2-1.1 0.4-1.5 0.9-0.5 0.9-0.1 2 0.2 2.9 1 2.4 2.1 4.7 3.2 7.1 4.3-5.6 8.7-11.2 13.1-16.7-4.9 1.8-10 3.8-15 5.8m39.7 55.4c5-1.8 10-3.7 14.9-5.5 1.2-0.4 2.5-1.2 2.2-2.4-4-0.1-7.9-1.4-11.8-0.6s-7.4 5.2-5.3 8.5m259.6 132.4c4.7-1.4 9.3-3.6 13.2-6.5-2.7-2.1-5.7-3.9-9-5.2-1.3 3.9-2.8 7.8-4.2 11.7"
       id="path28" />
    <path
       d="m801.5 396.8"
       id="path29" />
    <path
       d="m775.1 392.7c-0.5 0-0.5 1 0 1s0.5-1 0-1"
       id="path30" />
    <path
       d="m807.7 404.2c-0.3 0.4 0-0.5 0 0"
       id="path31" />
    <path
       d="m600.6 192.1c0.5 0.3-0.4-0.2 0 0"
       id="path32" />
    <path
       d="m691.6 124.3l1.2-1.5c0.7 0.5-0.3 1.9-1 1.4"
       id="path33" />
    <path
       d="m601.4 191.3c0.4 0.3-0.5-0.1 0 0"
       id="path34" />
    <path
       d="m802.3 397.1c3.3-2.4 7.3-3.7 11.4-4-2.6 3.4-7.3 5-11.4 4"
       id="path35" />
    <path
       d="m693.17 125.03c-2.6 5.1-10.277 11.438-14.777 14.838 3-4.7 14.453-21.214 18.653-25.014"
       id="path36" />
    <path
       d="m807.5 403.9c4.1 2.1 8 4.6 11.6 7.5 2.3 1.8 4.6 4 5.3 6.8-5.6-4.8-11.2-9.5-16.9-14.3"
       id="path37" />
    <path
       d="m559.8 244.1c-1-1.2-1-3-0.7-4.6 1-8.2 2.1-16.4 3.1-24.5 0.2-1.6 1.2-3.8 2.8-3.2 1 0.4 1.2 1.8 1 3-0.5 7.8-1.5 15.5-3.1 23.1-0.5 2.3-1.1 4.9-3.1 6.2"
       id="path38" />
  </g>
  <path
     d="m430.22 376.37c-26.422 3.8808-43.481 12.428-67.167 24.618-18.238 13.621-2.493 47.446 16.347 54.816 34.418 14.318 73.476 5.4338 107.65-5.4151 30.035-10.814 57.622-27.972 81.115-49.538-16.336-3.9306-34.693-9.8642-53.557-13.915-28.737-6.1717-58.65-9.8893-84.387-10.565z"
     fill="#d38d5f"
     stroke="#000"
     stroke-width="3.7138"
     id="path39" />
  <path
     d="m312.57 360.58c-4.68 0.0882-21.214 20.496-21.73 26.531 8.3591 0.20776 19.532-4.716 23.897-12.109 1.1201-3.3032 2.8959-12.986-2.1664-14.422z"
     fill="#f9f9f9"
     id="path40" />
  <path
     d="m334.68 341.65c-8.7494 1.944-16.379 6.7722-21.165 14.688 4.2768 5.5161 4.4999 17.119 0.64406 24.479-9.1364 6.3634-15.145 10.198-19.616 13.26-3.1301-0.29616-2.939-2.6461-7.1494-1.9858-1.8396 3.4215-5.2779 11.493-2.7285 14.498 18.236-5.152 47.564-14.994 56.662-33.701 1.717-8.6473 9.2633-23.664 5.2841-31.837l-5.9259-1.074-1.7762 0.8501z"
     id="path41" />
  <path
     d="m568.06 412.7c-17.476 2.0352-26.601 14.838-40.292 21.591-29.018 18.395-62.5 28.135-96.307 33.327 12.537 10.03 31.871 25.563 49.007 22.929 56.298-1.864 109-35.503 151.72-69.814-11.167-4.9208-29.553-5.1007-41.985-6.6648-6.2849-0.46902-15.842-1.426-22.141-1.368z"
     fill="#a05a2c"
     stroke="#000"
     stroke-width="2.1846px"
     id="path42" />
  <path
     d="m181.52 380.52c-0.45846 8.3396 1.3872 16.774 3.9779 24.704 4.4196 13.071 11.989 25.08 22.158 34.442 2.1533 2.0467 4.3574 4.4118 6.5341 6.228-0.67609-12.919-1.3849-25.928-3.9186-38.639-0.36336-2.7554-2.3521-5.3858-5.3542-5.3265-3.457-0.29276-7.5393-0.19486-9.754-3.4218-4.8549-5.7456-8.9611-12.129-13.643-17.987z"
     fill="#e9ddaf"
     stroke="#000"
     stroke-width="2.1846px"
     id="path43" />
  <path
     d="m131.61 304.91c-7.5793 0.22005-15.227-0.28616-22.764 0.5224-2.5787 1.4242-0.48495 4.8082 0.27834 6.7512 7.6341 16.682 20.293 30.263 30.535 45.302 4.6371 6.2934 8.1665 13.271 11.776 20.169 1.4239 2.6333 3.9767 5.028 7.2115 4.3901 5.0844-0.135 10.146-0.69036 15.213-1.0884-2.0721-5.2249-1.7226-11.059-0.97959-16.52 0.33379-2.7499 2.1703-5.1466 2.8296-7.6843-5.5831-2.4575-8.6285-8.2571-10.205-13.874-1.9321-7.679-4.3234-15.36-8.8567-21.95-3.5974-5.2211-7.041-10.783-11.922-14.903-4.0538-1.7555-8.8204-0.85591-13.117-1.115z"
     fill="#c87137"
     stroke="#000"
     stroke-width="2.1846px"
     id="path44" />
  <path
     d="m103.36 633.75c-5.7722-1.1755-6.6258 2.9918-3.1699 7.0345 20.119 42.32 38.197 86.185 65.217 124.72 6.45 8.1784 13.698 17.295 21.825 23.053-16.052-45.661-42.706-89.274-43.173-139.03-3.3024-11.752-18.663-13.528-28.906-15.216-3.916-0.39813-7.8544-0.66114-11.792-0.55457z"
     fill="#e3dbdb"
     id="path45" />
  <path
     d="m83.497 656.67c27.859 47.93 44.997 105.47 91.534 139.63 1.9215 2.655 10.942 5.3195 10.245 0.0197-18.923-10.8-28.346-32.018-40.556-49.238-18.461-30.074-33.792-62.139-46.012-95.236-4.3259 1.7861-26.287-4.4029-15.21 4.8278z"
     fill="#e3dbdb"
     id="path46" />
  <path
     d="m380.28 604.12c-11.931-0.76761-11.358 14.343-14.883 22.148-11.801 46.372-31.112 90.27-47.508 135.05 1.8685 1.6939 6.9787-7.5372 9.3316-9.2455 27.782-35.993 57.684-71.697 75.237-114.08 4.1852-10.273 6.6669-27.269-7.3521-31.032-4.695-1.8665-9.7604-2.9456-14.825-2.8401z"
     fill="#e3dbdb"
     id="path47" />
  <path
     d="m438.91 637.62c-9.7624 1.466-22.623-1.0369-29.916 6.7631-12.312 24.187-22.139 49.719-35.854 73.268-9.082 18.031-21.331 34.89-31.108 52.107 19.363-12.104 34.759-30.278 50.476-46.834 20.571-24.184 39.805-49.866 55.693-77.351 3.7938-6.9181-3.8975-8.6337-9.2908-7.954z"
     fill="#e3dbdb"
     id="path48" />
  <path
     d="m144.46 839.96c-5.9545 0.87372-10.749 5.2065-16.085 7.7484-12.218 7.2669-24.812 14.091-36.405 22.292 2.6265 1.8569 6.5088 0.425 9.4573-0.13261 9.0237-4.5784 16.316-12.07 25.565-16.361 7.014-4.125 14.61-7.3758 21.393-11.809 0.39054-1.5771-3.0486-1.7629-3.9261-1.7378z"
     fill="#e3dbdb"
     id="path49" />
  <path
     d="m168.73 842.58c-10.963 2.0221-21.036 7.3082-31.166 11.782-9.1492 4.5817-18.682 8.8166-26.612 15.399 20.812-1.3523 41.681-1.7164 62.484-3.222 0.33711-7.081 2.7476-14.667 0-21.495-0.9583-1.6376-2.801-2.6587-4.7062-2.4644z"
     fill="#e3dbdb"
     id="path50" />
  <path
     d="m466.17 855.87c-5.6345 1.2489-9.73 6.4308-12.462 11.241-1.965 3.4317-0.88045 8.5778 3.0026 10.03 2.6585 1.7339 6.2054 6.2911 9.4124 2.978 6.6152-5.1095 9.6927-16.13 3.664-22.778-0.98776-0.87444-2.2692-1.5233-3.6169-1.4714z"
     fill="#e3dbdb"
     id="path51" />
  <path
     d="m496.44 856.76c-7.5187-0.17891-17.134 4.8282-16.609 13.38 0.61314 6.1279 7.3611 10.924 13.26 8.3819 4.3724-2.6515 9.5249-1.5372 14.25-2.7062 4.5008-1.2706 2.6088-6.982 2.1198-10.273-1.1307-6.4416-6.8538-9.3573-13.022-8.7832z"
     fill="#e3dbdb"
     id="path52" />
</svg>
