<?xml version="1.0" standalone="no"?>
<!DOCTYPE svg PUBLIC "-//W3C//DTD SVG 20010904//EN"
 "http://www.w3.org/TR/2001/REC-SVG-20010904/DTD/svg10.dtd">
<svg version="1.0" xmlns="http://www.w3.org/2000/svg"
 width="859.000000pt" height="859.000000pt" viewBox="0 0 859.000000 859.000000"
 preserveAspectRatio="xMidYMid meet">
<metadata>
Created by potrace 1.14, written by Peter Selinger 2001-2017
</metadata>
<g transform="translate(0.000000,859.000000) scale(0.100000,-0.100000)"
fill="#000000" stroke="none">
<path d="M4058 8585 c-1 -1 -49 -6 -105 -9 -57 -4 -111 -9 -120 -10 -10 -2
-45 -7 -78 -10 -33 -4 -71 -9 -85 -11 -26 -5 -55 -10 -124 -20 -21 -4 -48 -9
-60 -11 -11 -3 -34 -7 -51 -10 -80 -14 -355 -88 -477 -128 -409 -135 -823
-346 -1148 -585 -70 -52 -259 -199 -270 -211 -3 -3 -50 -44 -105 -92 -122
-105 -321 -308 -437 -443 -286 -335 -529 -744 -692 -1162 -57 -148 -142 -418
-161 -513 -2 -8 -8 -33 -13 -55 -6 -22 -13 -51 -16 -65 -3 -14 -10 -50 -16
-80 -6 -30 -13 -68 -16 -85 -2 -16 -7 -37 -9 -45 -2 -8 -7 -33 -10 -55 -2 -22
-7 -51 -9 -65 -8 -44 -25 -182 -31 -260 -4 -41 -8 -90 -10 -109 -9 -76 -15
-341 -8 -341 4 0 22 8 38 18 30 19 132 57 176 66 13 3 56 12 94 21 39 8 81 17
95 20 146 25 214 35 260 40 30 3 62 7 70 10 8 2 47 7 85 10 39 2 86 7 105 10
42 5 136 13 245 20 44 3 105 7 135 10 30 3 93 7 140 10 47 3 110 8 140 10 30
3 107 7 170 10 63 3 140 8 170 10 30 2 127 7 215 10 88 4 192 8 230 10 107 6
558 17 765 20 102 1 195 5 206 9 22 7 35 29 98 169 67 148 191 297 319 385
273 189 648 217 951 72 99 -47 191 -116 272 -202 79 -84 114 -138 170 -256 74
-157 76 -161 97 -168 12 -4 100 -8 197 -10 196 -3 595 -13 770 -19 215 -7 435
-16 495 -20 33 -2 110 -6 170 -10 61 -3 135 -8 165 -10 30 -3 93 -7 140 -10
94 -6 167 -12 250 -20 30 -2 84 -7 120 -10 36 -3 83 -8 105 -10 22 -2 67 -7
100 -10 57 -6 91 -9 180 -20 22 -2 67 -7 100 -11 49 -5 160 -25 325 -60 20 -4
149 -54 208 -81 10 -4 11 43 8 228 -3 129 -7 243 -9 254 -3 11 -8 52 -12 90
-4 39 -9 77 -10 86 -2 9 -6 40 -10 70 -19 161 -96 479 -166 689 -82 250 -215
552 -340 773 -79 140 -267 418 -369 547 -664 836 -1609 1393 -2660 1569 -36 6
-78 13 -95 16 -16 3 -73 10 -125 16 -52 6 -108 12 -125 15 -34 5 -602 14 -607
9z"/>
<path d="M4131 4939 c-231 -62 -417 -248 -477 -479 -19 -71 -24 -233 -11 -315
10 -62 60 -183 101 -244 104 -153 262 -257 444 -289 52 -9 196 -9 237 1 272
65 460 243 526 501 28 107 21 287 -14 386 -47 128 -108 216 -230 326 -22 19
-142 83 -186 99 -73 25 -92 28 -206 31 -84 2 -128 -2 -184 -17z"/>
<path d="M2670 4039 c0 -4 -10 -7 -22 -6 -27 0 -279 -12 -358 -18 -30 -2 -116
-7 -190 -10 -74 -3 -169 -8 -210 -10 -41 -3 -122 -7 -180 -10 -308 -15 -480
-27 -720 -50 -25 -2 -74 -7 -110 -10 -36 -4 -76 -8 -90 -10 -14 -2 -50 -7 -80
-10 -30 -3 -102 -13 -160 -22 -58 -8 -114 -16 -125 -18 -115 -16 -294 -64
-347 -93 -39 -22 -45 -49 -29 -132 6 -30 13 -71 16 -90 3 -19 8 -42 10 -50 2
-8 7 -31 10 -50 24 -143 169 -636 196 -665 5 -5 9 -18 9 -30 0 -12 4 -25 8
-30 5 -6 21 -41 37 -80 43 -107 150 -324 222 -454 64 -115 274 -438 310 -476
10 -11 29 -35 42 -54 79 -112 315 -370 467 -511 308 -286 629 -508 1001 -694
132 -66 331 -154 388 -172 6 -2 55 -20 110 -39 98 -36 380 -120 433 -130 15
-3 36 -7 47 -9 92 -21 218 -45 257 -50 26 -4 53 -8 60 -11 7 -2 42 -7 78 -10
36 -4 79 -9 95 -10 223 -26 791 -26 923 0 10 1 45 6 77 10 75 8 218 31 310 50
39 8 81 16 95 18 14 3 86 21 161 40 1079 282 2025 1008 2605 1999 237 405 397
822 489 1276 20 95 38 203 41 240 5 59 3 70 -16 94 -18 24 -88 54 -170 73 -93
22 -199 43 -260 51 -25 3 -52 8 -60 9 -9 2 -43 6 -75 10 -33 4 -71 9 -85 11
-14 2 -56 7 -95 10 -38 3 -73 8 -76 10 -3 1 -45 6 -95 9 -49 4 -100 8 -113 10
-14 3 -63 7 -110 10 -47 3 -104 7 -126 10 -22 2 -85 7 -140 10 -55 3 -129 8
-165 10 -65 4 -204 11 -400 20 -154 7 -430 16 -880 30 -96 3 -234 7 -306 10
-155 5 -147 10 -205 -120 -161 -365 -465 -569 -844 -568 -233 1 -459 90 -645
252 -19 17 -42 31 -51 31 -37 0 -153 166 -210 299 -19 44 -43 85 -54 93 -16
10 -93 13 -357 14 -186 0 -338 -3 -338 -7z"/>
</g>
</svg>
