<?xml version="1.0" encoding="UTF-8" standalone="no"?>
<svg
   id="Layer_1"
   data-name="Layer 1"
   viewBox="0 0 859.00189 858.96319"
   version="1.1"
   sodipodi:docname="ICONE_OK.svg"
   width="859.00189"
   height="858.9632"
   inkscape:version="1.3 (0e150ed6c4, 2023-07-21)"
   inkscape:export-filename="ICONE_OK_azul.svg"
   inkscape:export-xdpi="96"
   inkscape:export-ydpi="96"
   xmlns:inkscape="http://www.inkscape.org/namespaces/inkscape"
   xmlns:sodipodi="http://sodipodi.sourceforge.net/DTD/sodipodi-0.dtd"
   xmlns="http://www.w3.org/2000/svg"
   xmlns:svg="http://www.w3.org/2000/svg"
   xmlns:rdf="http://www.w3.org/1999/02/22-rdf-syntax-ns#"
   xmlns:cc="http://creativecommons.org/ns#"
   xmlns:dc="http://purl.org/dc/elements/1.1/">
  <defs
     id="defs3" />
  <sodipodi:namedview
     id="namedview3"
     pagecolor="#ffffff"
     bordercolor="#cccccc"
     borderopacity="1"
     inkscape:showpageshadow="0"
     inkscape:pageopacity="1"
     inkscape:pagecheckerboard="0"
     inkscape:deskcolor="#d1d1d1"
     inkscape:zoom="0.46416755"
     inkscape:cx="939.31599"
     inkscape:cy="315.61879"
     inkscape:window-width="1904"
     inkscape:window-height="993"
     inkscape:window-x="11"
     inkscape:window-y="19"
     inkscape:window-maximized="0"
     inkscape:current-layer="Layer_1" />
  <title
     id="title1">1</title>
  <path
     id="path10-6"
     style="fill:#ffffff;fill-opacity:1;fill-rule:evenodd;stroke:#ffffff;stroke-width:0;stroke-linecap:butt;stroke-linejoin:miter;stroke-dasharray:none;paint-order:markers fill stroke"
     d="m 27.055041,493.48435 a 406.10336,327.28384 0 0 0 200.374999,285.90043 406.10336,327.28384 0 0 0 407.42578,1.8593 406.10336,327.28384 0 0 0 204.38086,-284.0527 L 500.5941,495.64646 a 101.25654,108.79692 0 0 1 -17.22461,13.5039 101.25654,108.79692 0 0 1 -101.58594,-0.61914 101.25654,108.79692 0 0 1 -16.85351,-13.50391 z"
     inkscape:export-filename="icone_transparente_OK.png"
     inkscape:export-xdpi="96"
     inkscape:export-ydpi="96" />
  <path
     d="m 858.62,437.22386 c -22.82,-11.92 -47.94,-14 -72.71,-16.74 -84.93,-9.42 -170.26,-11.81 -255.62,-13.15 -5.36,-0.09 -8,-1.35 -9.92,-6.9 -14.29,-41 -48.95,-66 -90.57,-65.85 -41.33,0.15 -75.93,25.16 -89.91,65.51 -1.82,5.25 -4,7.22 -9.67,7.26 q -96.89,0.76 -193.54,7.64 c -37.999996,2.71 -76.089996,5.51 -113.39,14.27 a 84.58,84.58 0 0 0 -23.29,9.3 c 2,-148.63 58.910004,-268.51 177.75,-356.300002 142.87,-105.54 335.4,-107.67 479.8,-17.07 153.92,96.560002 206.54,257.750002 201.07,372.030002 z"
     id="path1"
     style="fill:#75a7fd;fill-opacity:1" />
  <path
     d="m 266.83,454.29386 c 20.79,0 41.59,0.18 62.39,-0.12 5.61,-0.08 8.69,0.94 11,6.9 15.11,39.73 49.91,64 90.43,63.82 40.85,-0.19 73.77,-24.14 89.2,-65.16 1.54,-4.1 3.49,-5.71 8,-5.56 43.75,1.55 87.53,2.5 131.26,4.41 39.37,1.72 78.73,4.11 117.91,8.56 23.39,2.66 46.77,5.29 69.43,12.32 7.31,2.27 9.43,5.9 8.39,13.5 -22.97,166.63002 -151.65,310.47002 -315.33,352.17002 -229.83,58.53 -459.289996,-73.73 -524.13,-302.16 -5,-17.60002 -8.25,-35.58002 -11.41,-53.59002 -1,-5.59 2,-7.22 5.93,-8.73 13.39,-5.18 27.48,-7.57 41.570004,-9.6 35.64,-5.11 71.489996,-8.17 107.449996,-10 35.96,-1.83 71.92,-3.69 107.88,-5.53 z m 534.1,63.39 c -10.66,-1.4 -20.75,-3 -30.9,-4 -68.32,-6.69 -136.89,-8.93 -205.45,-11.39 -8,-0.28 -12.59,2 -17.3,8.77 -58.2,83.65002 -179.81,82.34002 -236.3,-2.41 -3.15,-4.72 -6.29,-6.57 -11.93,-6.36 -76.6,2.88 -153.26,4.4 -229.419996,14.52 -9,1.2 -10.44,3.5 -8.14,11.83002 15.89,57.44 42.309996,109.4 82.629996,153.34 94.88,103.36 212.71,145.16 351,123.29 95.38,-15.09 173.32,-63.17 233.79,-138.69 35.16,-43.94 58.87,-93.57 72.02,-148.90002 z"
     id="path2"
     style="fill:#75a7fd;fill-opacity:1" />
  <path
     d="m 497.07,429.92386 a 67,67 0 1 1 -133.92,-0.88 c 0.2,-36.61 30.49,-66.4 67.38,-66.26 36.65,0.13 66.62,30.35 66.54,67.14 z"
     id="path3"
     style="fill:#75a7fd;fill-opacity:1" />
  <path
     id="path10-6-7-4"
     style="fill:#ffffff;fill-opacity:1;fill-rule:evenodd;stroke:#ffffff;stroke-width:0;stroke-linecap:butt;stroke-linejoin:miter;stroke-dasharray:none;paint-order:markers fill stroke"
     d="M 52.992994,386.1338 A 378.09628,346.45615 0 0 1 239.54718,83.486088 a 378.09628,346.45615 0 0 1 379.3262,-1.97048 378.09628,346.45615 0 0 1 190.2863,300.691022 l -247.8284,1.28766 a 149.39975,178.17841 0 0 0 -56.0565,-67.97419 149.39975,178.17841 0 0 0 -149.8847,1.01263 149.39975,178.17841 0 0 0 -55.2147,68.318 z" />
  <metadata
     id="metadata11">
    <rdf:RDF>
      <cc:Work
         rdf:about="">
        <dc:title>1</dc:title>
      </cc:Work>
    </rdf:RDF>
  </metadata>
</svg>
